<?xml version="1.0" encoding="UTF-8" standalone="no"?>
<!-- Created with Inkscape (http://www.inkscape.org/) -->

<svg
   xmlns:dc="http://purl.org/dc/elements/1.1/"
   xmlns:cc="http://creativecommons.org/ns#"
   xmlns:rdf="http://www.w3.org/1999/02/22-rdf-syntax-ns#"
   xmlns:svg="http://www.w3.org/2000/svg"
   xmlns="http://www.w3.org/2000/svg"
   xmlns:sodipodi="http://sodipodi.sourceforge.net/DTD/sodipodi-0.dtd"
   xmlns:inkscape="http://www.inkscape.org/namespaces/inkscape"
   version="1.0"
   width="1000"
   height="460"
   id="svg3288"
   inkscape:version="0.47 r22583"
   sodipodi:docname="FIR_Filter.svg">
  <metadata
     id="metadata97">
    <rdf:RDF>
      <cc:Work
         rdf:about="">
        <dc:format>image/svg+xml</dc:format>
        <dc:type
           rdf:resource="http://purl.org/dc/dcmitype/StillImage" />
      </cc:Work>
    </rdf:RDF>
  </metadata>
  <sodipodi:namedview
     pagecolor="#ffffff"
     bordercolor="#666666"
     borderopacity="1"
     objecttolerance="10"
     gridtolerance="10"
     guidetolerance="10"
     inkscape:pageopacity="0"
     inkscape:pageshadow="2"
     inkscape:window-width="1269"
     inkscape:window-height="844"
     id="namedview95"
     showgrid="false"
     inkscape:zoom="1.026087"
     inkscape:cx="500"
     inkscape:cy="152.0339"
     inkscape:window-x="0"
     inkscape:window-y="0"
     inkscape:window-maximized="0"
     inkscape:current-layer="svg3288" />
  <defs
     id="defs3290">
    <inkscape:perspective
       sodipodi:type="inkscape:persp3d"
       inkscape:vp_x="0 : 230 : 1"
       inkscape:vp_y="0 : 1000 : 0"
       inkscape:vp_z="1000 : 230 : 1"
       inkscape:persp3d-origin="500 : 153.33333 : 1"
       id="perspective99" />
    <marker
       refX="0"
       refY="0"
       orient="auto"
       style="overflow:visible"
       id="Arrow2Send">
      <path
         d="M 8.7185878,4.0337352 L -2.2072895,0.016013256 L 8.7185884,-4.0017078 C 6.97309,-1.6296469 6.9831476,1.6157441 8.7185878,4.0337352 z "
         transform="matrix(-0.3,0,0,-0.3,0.69,0)"
         style="font-size:12px;fill-rule:evenodd;stroke-width:0.625;stroke-linejoin:round"
         id="path3318" />
    </marker>
    <marker
       refX="0"
       refY="0"
       orient="auto"
       style="overflow:visible"
       id="Arrow1Mend">
      <path
         d="M 0,0 L 5,-5 L -12.5,0 L 5,5 L 0,0 z "
         transform="matrix(-0.4,0,0,-0.4,-4,0)"
         style="fill-rule:evenodd;stroke:#000000;stroke-width:1pt;marker-start:none"
         id="path3294" />
    </marker>
    <marker
       refX="0"
       refY="0"
       orient="auto"
       style="overflow:visible"
       id="Arrow2Mend">
      <path
         d="M 8.7185878,4.0337352 L -2.2072895,0.016013256 L 8.7185884,-4.0017078 C 6.97309,-1.6296469 6.9831476,1.6157441 8.7185878,4.0337352 z "
         transform="scale(-0.6,-0.6)"
         style="font-size:12px;fill-rule:evenodd;stroke-width:0.625;stroke-linejoin:round"
         id="path8424" />
    </marker>
    <marker
       refX="0"
       refY="0"
       orient="auto"
       style="overflow:visible"
       id="Arrow2Lend">
      <path
         d="M 8.7185878,4.0337352 L -2.2072895,0.016013256 L 8.7185884,-4.0017078 C 6.97309,-1.6296469 6.9831476,1.6157441 8.7185878,4.0337352 z "
         transform="matrix(-1.1,0,0,-1.1,-1.1,0)"
         style="font-size:12px;fill-rule:evenodd;stroke-width:0.625;stroke-linejoin:round"
         id="path8418" />
    </marker>
    <inkscape:perspective
       id="perspective2995"
       inkscape:persp3d-origin="0.5 : 0.33333333 : 1"
       inkscape:vp_z="1 : 0.5 : 1"
       inkscape:vp_y="0 : 1000 : 0"
       inkscape:vp_x="0 : 0.5 : 1"
       sodipodi:type="inkscape:persp3d" />
  </defs>
  <path
     id="rect4484"
     style="fill:#000000;fill-opacity:1;stroke:none"
     d="m 224.99114,61.39026 0,1.75 0,85.0625 0,1.75 1.78125,0 85.03125,0 1.78125,0 0,-1.75 0,-85.0625 0,-1.75 -1.78125,0 -85.03125,0 -1.78125,0 z m 3.5625,3.53125 81.5,0 0,81.5 -81.5,0 0,-81.5 z" />
  <path
     id="rect5465"
     style="fill:#000000;fill-opacity:1;stroke:none"
     d="m 395.08489,61.39026 0,1.75 0,85.0625 0,1.75 1.75,0 85.0625,0 1.75,0 0,-1.75 0,-85.0625 0,-1.75 -1.75,0 -85.0625,0 -1.75,0 z m 3.53125,3.53125 81.5,0 0,81.5 -81.5,0 0,-81.5 z" />
  <path
     id="rect5475"
     style="fill:#000000;fill-opacity:1;stroke:none"
     d="m 650.20989,61.39026 0,1.75 0,85.0625 0,1.75 1.75,0 85.0625,0 1.75,0 0,-1.75 0,-85.0625 0,-1.75 -1.75,0 -85.0625,0 -1.75,0 z m 3.53125,3.53125 81.5,0 0,81.5 -81.5,0 0,-81.5 z" />
  <path
     id="path5485"
     style="fill:#000000;fill-opacity:1;fill-rule:evenodd;stroke:none"
     d="m 311.64739,103.89026 0,3.5625 71.03125,0 0,-3.5625 -71.03125,0 z" />
  <path
     id="path8594"
     style="fill:#000000;fill-opacity:1;fill-rule:evenodd;stroke:none"
     d="m 481.89739,103.89026 0,3.5625 56.6875,0 0,-3.5625 -56.6875,0 z" />
  <path
     id="path12472"
     style="fill:#000000;fill-opacity:1;fill-rule:evenodd;stroke:none"
     d="m 535.05364,107.45276 3.53125,0 0,-3.5625 -3.53125,0 0,3.5625 z m 7.0625,0 3.5625,0 0,-3.5625 -3.5625,0 0,3.5625 z m 7.09375,0 3.53125,0 0,-3.5625 -3.53125,0 0,3.5625 z m 7.09375,0 3.53125,0 0,-3.5625 -3.53125,0 0,3.5625 z m 7.09375,0 3.53125,0 0,-3.5625 -3.53125,0 0,3.5625 z m 7.0625,0 3.5625,0 0,-3.5625 -3.5625,0 0,3.5625 z m 7.09375,0 3.5625,0 0,-3.5625 -3.5625,0 0,3.5625 z m 7.09375,0 3.53125,0 0,-3.5625 -3.53125,0 0,3.5625 z m 7.09375,0 3.53125,0 0,-3.5625 -3.53125,0 0,3.5625 z m 7.0625,0 3.5625,0 0,-3.5625 -3.5625,0 0,3.5625 z m 7.09375,0 3.5625,0 0,-3.5625 -3.5625,0 0,3.5625 z m 7.09375,0 3.53125,0 0,-3.5625 -3.53125,0 0,3.5625 z m 7.09375,0 3.53125,0 0,-3.5625 -3.53125,0 0,3.5625 z m 7.09375,0 3.53125,0 0,-3.5625 -3.53125,0 0,3.5625 z m 7.0625,0 3.5625,0 0,-3.5625 -3.5625,0 0,3.5625 z m 7.09375,0 3.5625,0 0,-3.5625 -3.5625,0 0,3.5625 z" />
  <path
     id="text7108"
     style="font-size:56px;font-style:italic;font-weight:normal;fill:#000000;fill-opacity:1;stroke:none;font-family:Times New Roman"
     d="m 228.75867,222.69183 -5.38672,18.89454 c 1.74999,-1.8229 3.27668,-3.0716 4.58008,-3.7461 1.30337,-0.67445 2.666,-1.01169 4.08789,-1.01172 2.00519,3e-5 3.64581,0.66539 4.92188,1.9961 1.27601,1.33075 1.91403,3.13543 1.91406,5.41406 -3e-5,2.93491 -0.83857,5.85613 -2.51563,8.76367 -1.6771,2.90756 -3.78257,5.17253 -6.3164,6.79492 -2.53387,1.6224 -5.03126,2.4336 -7.49219,2.4336 -2.75261,0 -5.57813,-1.02995 -8.47656,-3.08985 l 8.3125,-28.6289 c 0.63801,-2.2057 0.95702,-3.49997 0.95703,-3.88282 -10e-6,-0.47392 -0.14584,-0.82939 -0.4375,-1.0664 -0.41928,-0.32809 -1.03907,-0.49215 -1.85938,-0.49219 -0.38282,4e-5 -0.96615,0.0638 -1.75,0.19141 l 0,-1.03907 9.46094,-1.53125 z m -10.58203,36.75 c 1.82291,1.00261 3.42708,1.50391 4.8125,1.50391 1.60416,0 3.26757,-0.58789 4.99024,-1.76367 1.72263,-1.17578 3.21742,-3.1582 4.48437,-5.94727 1.26691,-2.78905 1.90037,-5.60545 1.90039,-8.44922 -2e-5,-1.67706 -0.41473,-2.98956 -1.24414,-3.9375 -0.82945,-0.94789 -1.80926,-1.42185 -2.93945,-1.42187 -1.69533,2e-5 -3.35418,0.67906 -4.97657,2.03711 -1.6224,1.35809 -2.77995,3.24936 -3.47265,5.67383 l -3.55469,12.30468 z m 26.37331,-4.04369 c 0.91666,2e-5 1.6883,0.38315 2.31494,1.14941 0.62662,0.76629 0.93993,1.97658 0.93994,3.63086 -1e-5,1.41798 -0.23276,2.86459 -0.69824,4.33985 -0.4655,1.47526 -1.12078,2.75358 -1.96582,3.83496 -0.67319,0.85221 -1.37859,1.4681 -2.11621,1.84765 -0.42969,0.21485 -0.92742,0.32227 -1.49317,0.32227 -0.93099,0 -1.7098,-0.38314 -2.33642,-1.14941 -0.62663,-0.76628 -0.93994,-1.98014 -0.93994,-3.64161 0,-1.63996 0.3151,-3.2871 0.94531,-4.9414 0.73763,-1.93358 1.67936,-3.40168 2.8252,-4.4043 0.75194,-0.65884 1.59341,-0.98826 2.52441,-0.98828 l 0,0 z m 0.0107,0.55859 c -0.41537,2e-5 -0.83611,0.16294 -1.26221,0.48877 -0.42611,0.32586 -0.86654,1.00441 -1.32128,2.03565 -0.45476,1.03126 -0.88982,2.35971 -1.30518,3.98535 -0.53711,2.12696 -0.80567,3.93881 -0.80566,5.43555 -1e-5,0.74479 0.16113,1.30159 0.48339,1.67041 0.32227,0.36881 0.71256,0.55322 1.1709,0.55322 0.43685,0 0.80924,-0.14323 1.11719,-0.42969 0.82356,-0.77343 1.52896,-2.09472 2.11621,-3.96387 0.95247,-3.05793 1.4287,-5.54295 1.42871,-7.45507 -1e-5,-0.79491 -0.16114,-1.38036 -0.4834,-1.75635 -0.32227,-0.37596 -0.70183,-0.56395 -1.13867,-0.56397 l 0,0 z" />
  <path
     id="text7126"
     style="font-size:56px;font-style:italic;font-weight:normal;fill:#000000;fill-opacity:1;stroke:none;font-family:Times New Roman"
     d="m 824.03411,222.6919 -5.38672,18.89453 c 1.74999,-1.8229 3.27668,-3.07159 4.58008,-3.7461 1.30337,-0.67445 2.666,-1.01169 4.08789,-1.01172 2.00519,3e-5 3.64581,0.66539 4.92187,1.9961 1.27602,1.33075 1.91404,3.13543 1.91407,5.41406 -3e-5,2.93491 -0.83857,5.85613 -2.51563,8.76367 -1.6771,2.90756 -3.78257,5.17253 -6.3164,6.79492 -2.53387,1.6224 -5.03127,2.4336 -7.49219,2.4336 -2.75261,0 -5.57813,-1.02995 -8.47656,-3.08985 l 8.3125,-28.6289 c 0.63801,-2.2057 0.95702,-3.49997 0.95703,-3.88281 -10e-6,-0.47393 -0.14585,-0.8294 -0.4375,-1.06641 -0.41928,-0.32809 -1.03908,-0.49215 -1.85938,-0.49219 -0.38282,4e-5 -0.96615,0.0638 -1.75,0.19141 l 0,-1.03906 9.46094,-1.53125 z m -10.58203,36.75 c 1.82291,1.0026 3.42707,1.5039 4.8125,1.5039 1.60415,0 3.26756,-0.58789 4.99023,-1.76367 1.72264,-1.17578 3.21743,-3.1582 4.48438,-5.94727 1.2669,-2.78905 1.90037,-5.60545 1.90039,-8.44921 -2e-5,-1.67707 -0.41474,-2.98957 -1.24414,-3.9375 -0.82945,-0.9479 -1.80927,-1.42186 -2.93946,-1.42188 -1.69532,2e-5 -3.35418,0.67906 -4.97656,2.03711 -1.62241,1.35809 -2.77996,3.24937 -3.47265,5.67383 l -3.55469,12.30469 z m 23.59213,-3.76483 4.50098,11.41895 2.43848,-8.5293 c 0.2005,-0.70181 0.30076,-1.24608 0.30078,-1.63281 -2e-5,-0.26496 -0.0931,-0.47264 -0.2793,-0.62305 -0.18621,-0.15038 -0.53354,-0.22557 -1.04199,-0.22559 -0.086,2e-5 -0.17547,-0.004 -0.26856,-0.0107 l 0.11817,-0.39746 4.68359,0 -0.1289,0.39746 c -0.487,-0.007 -0.84865,0.043 -1.08496,0.15039 -0.33661,0.15041 -0.58726,0.34377 -0.75196,0.58008 -0.22918,0.3366 -0.46193,0.92384 -0.69824,1.76172 l -3.42676,12.00977 -0.38672,0 -4.84472,-12.28907 -2.58887,9.07715 c -0.19336,0.6875 -0.29004,1.21387 -0.29004,1.5791 0,0.27214 0.0877,0.47803 0.26318,0.61768 0.17546,0.13965 0.59261,0.23454 1.25147,0.28467 l -0.10742,0.39746 -4.57617,0 0.15039,-0.39746 c 0.57291,-0.0143 0.95605,-0.0645 1.14941,-0.15039 0.29362,-0.12891 0.51204,-0.2972 0.65527,-0.50489 0.20768,-0.3151 0.44043,-0.92382 0.69825,-1.82617 l 2.88964,-10.12988 c -0.2793,-0.42968 -0.57829,-0.72508 -0.89697,-0.88623 -0.31869,-0.16112 -0.81462,-0.25243 -1.48779,-0.27393 l 0.11816,-0.39746 3.6416,0 z" />
  <path
     id="text7152"
     style="font-size:56px;font-style:italic;font-weight:normal;fill:#000000;fill-opacity:1;stroke:none;font-family:Times New Roman"
     d="m 398.83724,222.6919 -5.38672,18.89453 c 1.74999,-1.8229 3.27668,-3.07159 4.58008,-3.7461 1.30337,-0.67445 2.666,-1.01169 4.08789,-1.01172 2.00519,3e-5 3.64581,0.66539 4.92187,1.9961 1.27602,1.33075 1.91404,3.13543 1.91407,5.41406 -3e-5,2.93491 -0.83857,5.85613 -2.51563,8.76367 -1.6771,2.90756 -3.78257,5.17253 -6.3164,6.79492 -2.53387,1.6224 -5.03127,2.4336 -7.49219,2.4336 -2.75261,0 -5.57813,-1.02995 -8.47656,-3.08985 l 8.3125,-28.6289 c 0.63801,-2.2057 0.95702,-3.49997 0.95703,-3.88281 -10e-6,-0.47393 -0.14585,-0.8294 -0.4375,-1.06641 -0.41928,-0.32809 -1.03907,-0.49215 -1.85938,-0.49219 -0.38282,4e-5 -0.96615,0.0638 -1.75,0.19141 l 0,-1.03906 9.46094,-1.53125 z m -10.58203,36.75 c 1.82291,1.0026 3.42707,1.5039 4.8125,1.5039 1.60415,0 3.26756,-0.58789 4.99023,-1.76367 1.72264,-1.17578 3.21743,-3.1582 4.48438,-5.94727 1.2669,-2.78905 1.90037,-5.60545 1.90039,-8.44921 -2e-5,-1.67707 -0.41474,-2.98957 -1.24414,-3.9375 -0.82945,-0.9479 -1.80927,-1.42186 -2.93946,-1.42188 -1.69532,2e-5 -3.35418,0.67906 -4.97656,2.03711 -1.6224,1.35809 -2.77996,3.24937 -3.47265,5.67383 l -3.55469,12.30469 z m 27.95241,-3.84618 -3.45899,12.04199 c -0.20052,0.70899 -0.30078,1.22103 -0.30078,1.53613 0,0.26498 0.0913,0.46729 0.27393,0.60694 0.18261,0.13964 0.61051,0.23453 1.28369,0.28466 l -0.10742,0.39746 -5.53223,0 0.15039,-0.39746 c 0.58724,-0.0143 0.97396,-0.0609 1.16016,-0.13965 0.30078,-0.1289 0.52636,-0.30078 0.67676,-0.51562 0.23632,-0.32943 0.47623,-0.92025 0.71972,-1.77246 l 2.49219,-8.64746 c 0.15038,-0.52278 0.23274,-0.82356 0.24707,-0.90235 0.0215,-0.14321 0.0322,-0.28286 0.0322,-0.41894 -1e-5,-0.25064 -0.068,-0.44758 -0.2041,-0.59082 -0.13608,-0.14322 -0.32228,-0.21483 -0.5586,-0.21485 -0.1862,2e-5 -0.47624,0.043 -0.87012,0.12891 l -0.13964,-0.38672 3.62011,-1.00976 0.51563,0 z" />
  <path
     id="text7160"
     style="font-size:56px;font-style:italic;font-weight:normal;fill:#000000;fill-opacity:1;stroke:none;font-family:Times New Roman"
     d="m 568.91598,222.6919 -5.38672,18.89453 c 1.74998,-1.8229 3.27668,-3.07159 4.58007,-3.7461 1.30337,-0.67445 2.666,-1.01169 4.0879,-1.01172 2.00518,3e-5 3.64581,0.66539 4.92187,1.9961 1.27602,1.33075 1.91404,3.13543 1.91406,5.41406 -2e-5,2.93491 -0.83856,5.85613 -2.51562,8.76367 -1.67711,2.90756 -3.78257,5.17253 -6.31641,6.79492 -2.53387,1.6224 -5.03126,2.4336 -7.49219,2.4336 -2.75261,0 -5.57813,-1.02995 -8.47656,-3.08985 l 8.3125,-28.6289 c 0.63801,-2.2057 0.95702,-3.49997 0.95703,-3.88281 -10e-6,-0.47393 -0.14584,-0.8294 -0.4375,-1.06641 -0.41928,-0.32809 -1.03907,-0.49215 -1.85937,-0.49219 -0.38282,4e-5 -0.96616,0.0638 -1.75,0.19141 l 0,-1.03906 9.46094,-1.53125 z m -10.58204,36.75 c 1.82291,1.0026 3.42708,1.5039 4.8125,1.5039 1.60416,0 3.26757,-0.58789 4.99024,-1.76367 1.72264,-1.17578 3.21743,-3.1582 4.48437,-5.94727 1.26691,-2.78905 1.90037,-5.60545 1.90039,-8.44921 -2e-5,-1.67707 -0.41473,-2.98957 -1.24414,-3.9375 -0.82944,-0.9479 -1.80926,-1.42186 -2.93945,-1.42188 -1.69533,2e-5 -3.35418,0.67906 -4.97656,2.03711 -1.62241,1.35809 -2.77996,3.24937 -3.47266,5.67383 l -3.55469,12.30469 z m 26.85636,11.021 -7.25098,0 0,-0.39746 c 3.69531,-3.23697 6.13736,-5.77571 7.32617,-7.61621 0.55143,-0.8522 0.82714,-1.74738 0.82715,-2.68554 -10e-6,-0.74478 -0.22917,-1.35172 -0.6875,-1.82081 -0.45834,-0.46906 -1.05274,-0.7036 -1.7832,-0.70361 -1.00977,1e-5 -1.8405,0.48341 -2.49219,1.4502 l -0.37598,-0.17188 c 0.36524,-0.92381 0.89876,-1.64175 1.60059,-2.15381 0.70182,-0.51203 1.46093,-0.76805 2.27734,-0.76806 0.92382,1e-5 1.70084,0.31691 2.33106,0.95068 0.6302,0.6338 0.9453,1.40187 0.94531,2.3042 -10e-6,0.63022 -0.11101,1.21388 -0.33301,1.75098 -0.34376,0.8379 -0.97754,1.77605 -1.90136,2.81445 -1.40366,1.58985 -3.27638,3.4196 -5.61817,5.48926 l 3.65235,0 c 0.58723,0 1.07063,-0.12175 1.45019,-0.36524 0.37955,-0.24348 0.65169,-0.56933 0.81641,-0.97754 l 0.42968,0 -1.21386,2.90039 z" />
  <path
     id="path2281"
     style="fill:#000000;fill-opacity:1;fill-rule:evenodd;stroke:none"
     d="m 182.49114,105.67151 0,74.40625 3.53125,0 0,-74.40625 -3.53125,0 z" />
  <path
     id="path2283"
     style="fill:#000000;fill-opacity:1;fill-rule:evenodd;stroke:none"
     d="m 113.39739,103.89026 0,3.5625 53.71875,0 44.78125,0 0,-3.5625 -44.78125,0 -53.71875,0 z" />
  <path
     id="path3264"
     style="fill:#000000;fill-opacity:1;fill-rule:evenodd;stroke:none"
     d="m 777.74114,106.07776 0,0.625 0,62.75 3.5625,0 0,-62.75 0,-0.625 -3.5625,0 z" />
  <path
     id="path3268"
     style="fill:#000000;fill-opacity:1;fill-rule:evenodd;stroke:none"
     d="m 737.02239,103.89026 0,3.5625 40.71875,0 0,12.375 3.5625,0 0,-14.15625 0,-1.78125 -1.78125,0 -42.5,0 z" />
  <path
     id="path2287"
     style="fill:#000000;fill-opacity:1;stroke:none"
     d="m 354.33663,330.66735 c -24.4294,0 -44.3125,19.85181 -44.3125,44.28125 0,24.42944 19.8831,44.3125 44.3125,44.3125 24.4295,0 44.2813,-19.88306 44.2813,-44.3125 0,-24.42944 -19.8519,-44.28125 -44.2813,-44.28125 z m 0,3.53125 c 22.5123,0 40.75,18.23772 40.75,40.75 0,22.51229 -18.2377,40.75 -40.75,40.75 -22.5123,0 -40.75,-18.2377 -40.75,-40.75 0,-22.51229 18.2378,-40.75 40.75,-40.75 z" />
  <path
     id="text2289"
     style="font-size:56px;font-style:normal;font-weight:normal;fill:#000000;fill-opacity:1;stroke:none;font-family:Arial"
     d="m 339.19588,356.42145 27.8086,0 0.73828,9.32422 -1.03907,0 c -0.12763,-1.84112 -0.43752,-3.24932 -0.92968,-4.22461 -0.49222,-0.97523 -1.1667,-1.68161 -2.02344,-2.11914 -0.8568,-0.43747 -2.21487,-0.65622 -4.07422,-0.65625 l -12.66016,0 11.29297,14.49219 -12.85156,15.17578 14.08203,0 c 2.55206,0 4.50258,-0.41015 5.85156,-1.23047 1.34893,-0.82031 2.36065,-2.53385 3.03516,-5.14063 l 1.03906,0.2461 -1.58593,11.21093 -28.6836,0 0,-0.98437 14.27344,-16.84375 -14.27344,-18.26563 0,-0.98437 z" />
  <path
     id="path2295"
     style="fill:#000000;fill-opacity:1;stroke:none"
     d="m 524.4153,330.66735 c -24.4294,0 -44.3125,19.85181 -44.3125,44.28125 0,24.42944 19.8831,44.3125 44.3125,44.3125 24.4295,0 44.2813,-19.88306 44.2813,-44.3125 0,-24.42944 -19.8519,-44.28125 -44.2813,-44.28125 z m 0,3.53125 c 22.5123,0 40.75,18.23772 40.75,40.75 0,22.51229 -18.2377,40.75 -40.75,40.75 -22.5123,0 -40.75,-18.2377 -40.75,-40.75 0,-22.51229 18.2378,-40.75 40.75,-40.75 z" />
  <path
     id="text2297"
     style="font-size:56px;font-style:normal;font-weight:normal;fill:#000000;fill-opacity:1;stroke:none;font-family:Arial"
     d="m 509.27462,356.42145 27.80859,0 0.73828,9.32422 -1.03906,0 c -0.12763,-1.84112 -0.43753,-3.24932 -0.92969,-4.22461 -0.49221,-0.97523 -1.16669,-1.68161 -2.02343,-2.11914 -0.8568,-0.43747 -2.21487,-0.65622 -4.07422,-0.65625 l -12.66016,0 11.29297,14.49219 -12.85156,15.17578 14.08203,0 c 2.55206,0 4.50258,-0.41015 5.85156,-1.23047 1.34893,-0.82031 2.36065,-2.53385 3.03516,-5.14063 l 1.03906,0.2461 -1.58594,11.21093 -28.68359,0 0,-0.98437 14.27344,-16.84375 -14.27344,-18.26563 0,-0.98437 z" />
  <path
     id="path2301"
     style="fill:#000000;fill-opacity:1;fill-rule:evenodd;stroke:none"
     d="m 522.64739,275.60901 0,3.28125 0,42.90625 3.53125,0 0,-42.90625 0,-3.28125 -3.53125,0 z" />
  <path
     id="path2303"
     style="fill:#000000;fill-opacity:1;stroke:none"
     d="m 779.5334,330.66735 c -24.4294,0 -44.3125,19.85181 -44.3125,44.28125 0,24.42944 19.8831,44.3125 44.3125,44.3125 24.4295,0 44.2813,-19.88306 44.2813,-44.3125 0,-24.42944 -19.8519,-44.28125 -44.2813,-44.28125 z m 0,3.53125 c 22.5123,0 40.75,18.23772 40.75,40.75 0,22.51229 -18.2377,40.75 -40.75,40.75 -22.5123,0 -40.75,-18.2377 -40.75,-40.75 0,-22.51229 18.2378,-40.75 40.75,-40.75 z" />
  <path
     id="text2305"
     style="font-size:56px;font-style:normal;font-weight:normal;fill:#000000;fill-opacity:1;stroke:none;font-family:Arial"
     d="m 764.39263,356.42145 27.80859,0 0.73828,9.32422 -1.03906,0 c -0.12763,-1.84112 -0.43753,-3.24932 -0.92969,-4.22461 -0.49221,-0.97523 -1.16669,-1.68161 -2.02343,-2.11914 -0.8568,-0.43747 -2.21487,-0.65622 -4.07422,-0.65625 l -12.66016,0 11.29297,14.49219 -12.85156,15.17578 14.08203,0 c 2.55206,0 4.50258,-0.41015 5.85156,-1.23047 1.34893,-0.82031 2.36065,-2.53385 3.03516,-5.14063 l 1.03906,0.2461 -1.58594,11.21093 -28.68359,0 0,-0.98437 14.27344,-16.84375 -14.27344,-18.26563 0,-0.98437 z" />
  <path
     id="path2311"
     style="fill:#000000;fill-opacity:1;fill-rule:evenodd;stroke:none"
     d="m 182.49114,275.73401 0,99.21875 0,1.78125 1.75,0 120.46875,0 0,-3.53125 -118.6875,0 0,-97.46875 -3.53125,0 z" />
  <path
     id="path3480"
     style="fill:#000000;fill-opacity:1;fill-rule:evenodd;stroke:none"
     d="m 396.83489,373.20276 0,3.53125 77.96875,0 0,-3.53125 -77.96875,0 z" />
  <path
     id="path3482"
     style="fill:#000000;fill-opacity:1;fill-rule:evenodd;stroke:none"
     d="m 612.99114,376.73401 3.53125,0 0,-3.53125 -3.53125,0 0,3.53125 z m 7.09375,0 3.53125,0 0,-3.53125 -3.53125,0 0,3.53125 z m 7.09375,0 3.53125,0 0,-3.53125 -3.53125,0 0,3.53125 z m 7.0625,0 3.5625,0 0,-3.53125 -3.5625,0 0,3.53125 z m 7.09375,0 3.5625,0 0,-3.53125 -3.5625,0 0,3.53125 z m 7.09375,0 3.53125,0 0,-3.53125 -3.53125,0 0,3.53125 z m 7.09375,0 3.53125,0 0,-3.53125 -3.53125,0 0,3.53125 z m 7.0625,0 3.5625,0 0,-3.53125 -3.5625,0 0,3.53125 z m 7.09375,0 3.5625,0 0,-3.53125 -3.5625,0 0,3.53125 z m 7.09375,0 3.53125,0 0,-3.53125 -3.53125,0 0,3.53125 z m 7.09375,0 3.53125,0 0,-3.53125 -3.53125,0 0,3.53125 z m 7.09375,0 3.53125,0 0,-3.53125 -3.53125,0 0,3.53125 z m 7.0625,0 3.5625,0 0,-3.53125 -3.5625,0 0,3.53125 z m 7.09375,0 3.53125,0 0,-3.53125 -3.53125,0 0,3.53125 z m 7.09375,0 3.53125,0 0,-3.53125 -3.53125,0 0,3.53125 z m 7.09375,0 3.53125,0 0,-3.53125 -3.53125,0 0,3.53125 z" />
  <g
     id="g7762"
     transform="translate(70.866142,-372.04724)">
    <path
       id="path8369"
       style="fill:#000000;fill-opacity:1;fill-rule:evenodd;stroke:none"
       d="m 111.625,548.59375 0,7.0625 3.53125,0 0,-7.0625 -3.53125,0 z" />
    <path
       id="path7768"
       style="font-size:12px;fill-rule:evenodd;stroke-width:0.625;stroke-linejoin:round"
       d="m 121.96148,537.13367 -8.54162,23.22824 -8.54161,-23.22824 c 5.04297,3.7109 11.94262,3.68952 17.08323,0 z" />
  </g>
  <g
     id="g7770"
     transform="translate(70.866142,-372.04724)">
    <path
       id="path9340"
       style="fill:#000000;fill-opacity:1;fill-rule:evenodd;stroke:none"
       d="m 706.875,548.59375 0,7.0625 3.5625,0 0,-7.0625 -3.5625,0 z" />
    <path
       id="path7776"
       style="font-size:12px;fill-rule:evenodd;stroke-width:0.625;stroke-linejoin:round"
       d="m 717.23709,537.13367 -8.54162,23.22824 -8.54161,-23.22824 c 5.04297,3.7109 11.94262,3.68952 17.08323,0 z" />
  </g>
  <path
     id="path9342"
     style="fill:#000000;fill-opacity:1;fill-rule:evenodd;stroke:none"
     d="m 352.55364,105.67151 0,74.40625 3.5625,0 0,-74.40625 -3.5625,0 z" />
  <g
     id="g7782"
     transform="translate(70.866142,-372.04724)">
    <path
       id="path9344"
       style="fill:#000000;fill-opacity:1;fill-rule:evenodd;stroke:none"
       d="m 281.6875,548.59375 0,7.0625 3.5625,0 0,-7.0625 -3.5625,0 z" />
    <path
       id="path7788"
       style="font-size:12px;fill-rule:evenodd;stroke-width:0.625;stroke-linejoin:round"
       d="m 292.04029,537.13367 -8.54162,23.22824 -8.54161,-23.22824 c 5.04297,3.7109 11.94262,3.68952 17.08323,0 z" />
  </g>
  <path
     id="path9346"
     style="fill:#000000;fill-opacity:1;fill-rule:evenodd;stroke:none"
     d="m 522.64739,105.67151 0,74.40625 3.53125,0 0,-74.40625 -3.53125,0 z" />
  <g
     id="g7794"
     transform="translate(70.866142,-372.04724)">
    <path
       id="path9348"
       style="fill:#000000;fill-opacity:1;fill-rule:evenodd;stroke:none"
       d="m 451.78125,548.59375 0,7.0625 3.53125,0 0,-7.0625 -3.53125,0 z" />
    <path
       id="path7800"
       style="font-size:12px;fill-rule:evenodd;stroke-width:0.625;stroke-linejoin:round"
       d="m 462.11899,537.13367 -8.54162,23.22824 -8.54161,-23.22824 c 5.04297,3.7109 11.94262,3.68952 17.08323,0 z" />
  </g>
  <g
     id="g7802"
     transform="translate(70.866142,-372.04724)">
    <path
       id="path9350"
       style="fill:#000000;fill-opacity:1;fill-rule:evenodd;stroke:none"
       d="m 451.78125,690.3125 0,7.09375 3.53125,0 0,-7.09375 -3.53125,0 z" />
    <path
       id="path7808"
       style="font-size:12px;fill-rule:evenodd;stroke-width:0.625;stroke-linejoin:round"
       d="m 462.11899,678.86595 -8.54162,23.22824 -8.54161,-23.22824 c 5.04297,3.7109 11.94262,3.68952 17.08323,0 z" />
  </g>
  <path
     id="path9352"
     style="fill:#000000;fill-opacity:1;fill-rule:evenodd;stroke:none"
     d="m 777.74114,275.60901 0,3.28125 0,42.90625 3.5625,0 0,-42.90625 0,-3.28125 -3.5625,0 z" />
  <g
     id="g7814"
     transform="translate(70.866142,-372.04724)">
    <path
       id="path9354"
       style="fill:#000000;fill-opacity:1;fill-rule:evenodd;stroke:none"
       d="m 706.875,690.3125 0,7.09375 3.5625,0 0,-7.09375 -3.5625,0 z" />
    <path
       id="path7820"
       style="font-size:12px;fill-rule:evenodd;stroke-width:0.625;stroke-linejoin:round"
       d="m 717.23709,678.86595 -8.54162,23.22824 -8.54161,-23.22824 c 5.04297,3.7109 11.94262,3.68952 17.08323,0 z" />
  </g>
  <path
     id="path9356"
     style="fill:#000000;fill-opacity:1;fill-rule:evenodd;stroke:none"
     d="m 352.55364,275.73401 0,3.28125 0,42.9375 3.5625,0 0,-42.9375 0,-3.28125 -3.5625,0 z" />
  <g
     id="g7826"
     transform="translate(70.866142,-372.04724)">
    <path
       id="path9358"
       style="fill:#000000;fill-opacity:1;fill-rule:evenodd;stroke:none"
       d="m 281.6875,690.4375 0,7.09375 3.5625,0 0,-7.09375 -3.5625,0 z" />
    <path
       id="path7832"
       style="font-size:12px;fill-rule:evenodd;stroke-width:0.625;stroke-linejoin:round"
       d="m 292.04029,679.00087 -8.54162,23.22824 -8.54161,-23.22824 c 5.04297,3.7109 11.94262,3.68952 17.08323,0 z" />
  </g>
  <g
     id="g7834"
     transform="translate(70.866142,-372.04724)">
    <path
       id="path9360"
       style="fill:#000000;fill-opacity:1;fill-rule:evenodd;stroke:none"
       d="m 141.71875,475.9375 0,3.5625 7.09375,0 0,-3.5625 -7.09375,0 z" />
    <path
       id="path7840"
       style="font-size:12px;fill-rule:evenodd;stroke-width:0.625;stroke-linejoin:round"
       d="m 130.28334,469.14084 23.22824,8.54162 -23.22824,8.54161 c 3.7109,-5.04297 3.68952,-11.94262 0,-17.08323 z" />
  </g>
  <g
     id="g7842"
     transform="translate(70.866142,-372.04724)">
    <path
       id="path9364"
       style="fill:#000000;fill-opacity:1;fill-rule:evenodd;stroke:none"
       d="m 311.8125,475.9375 0,3.5625 7.09375,0 0,-3.5625 -7.09375,0 z" />
    <path
       id="path7848"
       style="font-size:12px;fill-rule:evenodd;stroke-width:0.625;stroke-linejoin:round"
       d="m 300.36205,469.14084 23.22824,8.54162 -23.22824,8.54161 c 3.7109,-5.04297 3.68952,-11.94262 0,-17.08323 z" />
  </g>
  <g
     id="g7850"
     transform="translate(70.866142,-372.04724)">
    <path
       id="path9366"
       style="fill:#000000;fill-opacity:1;fill-rule:evenodd;stroke:none"
       d="m 566.9375,475.9375 0,3.5625 7.09375,0 0,-3.5625 -7.09375,0 z" />
    <path
       id="path7856"
       style="font-size:12px;fill-rule:evenodd;stroke-width:0.625;stroke-linejoin:round"
       d="m 555.48015,469.14084 23.22824,8.54162 -23.22824,8.54161 c 3.7109,-5.04297 3.68952,-11.94262 0,-17.08323 z" />
  </g>
  <g
     id="g7858"
     transform="translate(70.866142,-372.04724)">
    <path
       id="path9368"
       style="fill:#000000;fill-opacity:1;fill-rule:evenodd;stroke:none"
       d="m 651.96875,745.25 0,3.53125 7.09375,0 0,-3.53125 -7.09375,0 z" />
    <path
       id="path7864"
       style="font-size:12px;fill-rule:evenodd;stroke-width:0.625;stroke-linejoin:round"
       d="m 640.51955,738.43217 23.22824,8.54162 -23.22824,8.54161 c 3.7109,-5.04297 3.68952,-11.94262 0,-17.08323 z" />
  </g>
  <g
     id="g7866"
     transform="translate(70.866142,-372.04724)">
    <path
       id="path9370"
       style="fill:#000000;fill-opacity:1;fill-rule:evenodd;stroke:none"
       d="m 396.84375,745.25 0,3.53125 7.09375,0 0,-3.53125 -7.09375,0 z" />
    <path
       id="path7872"
       style="font-size:12px;fill-rule:evenodd;stroke-width:0.625;stroke-linejoin:round"
       d="m 385.40145,738.43217 23.22824,8.54162 -23.22824,8.54161 c 3.7109,-5.04297 3.68952,-11.94262 0,-17.08323 z" />
  </g>
  <g
     id="g7874"
     transform="translate(70.866142,-372.04724)">
    <path
       id="path9372"
       style="fill:#000000;fill-opacity:1;fill-rule:evenodd;stroke:none"
       d="m 226.78125,745.25 0,3.53125 7.0625,0 0,-3.53125 -7.0625,0 z" />
    <path
       id="path7880"
       style="font-size:12px;fill-rule:evenodd;stroke-width:0.625;stroke-linejoin:round"
       d="m 215.32275,738.43217 23.22824,8.54162 -23.22824,8.54161 c 3.7109,-5.04297 3.68952,-11.94262 0,-17.08323 z" />
  </g>
  <path
     id="path9374"
     style="fill:#000000;fill-opacity:1;fill-rule:evenodd;stroke:none"
     d="m 566.92864,373.20276 0,3.53125 46.0625,0 0,-3.53125 -46.0625,0 z" />
  <path
     id="path9392"
     style="fill:#000000;fill-opacity:1;fill-rule:evenodd;stroke:none"
     d="m 821.30364,373.20276 0,3.53125 31.34375,0 26.09375,0 0,-3.53125 -26.09375,0 -31.34375,0 z" />
  <g
     id="g7890"
     transform="translate(70.866142,-372.04724)">
    <path
       id="path9394"
       style="fill:#000000;fill-opacity:1;fill-rule:evenodd;stroke:none"
       d="m 814.96875,745.25 0,3.53125 7.09375,0 0,-3.53125 -7.09375,0 z" />
    <path
       id="path7896"
       style="font-size:12px;fill-rule:evenodd;stroke-width:0.625;stroke-linejoin:round"
       d="m 803.51165,738.43217 23.22824,8.54162 -23.22824,8.54161 c 3.7109,-5.04297 3.68952,-11.94262 0,-17.08323 z" />
  </g>
  <path
     id="path6654"
     style="fill:#000000;fill-opacity:1;fill-rule:evenodd;stroke:none"
     d="m 138.875,188.9375 1.28125,2.5625 42.5,85.03125 1.59375,3.1875 1.59375,-3.1875 42.5,-85.03125 1.28125,-2.5625 -2.84375,0 -42.53125,0 -42.53125,0 -2.84375,0 z m 5.71875,3.53125 39.65625,0 39.65625,0 -39.65625,79.3125 -39.65625,-79.3125 z" />
  <path
     id="path7635"
     style="fill:#000000;fill-opacity:1;fill-rule:evenodd;stroke:none"
     d="m 308.95989,188.92151 1.28125,2.59375 42.5,85.03125 1.59375,3.15625 1.59375,-3.15625 42.5,-85.03125 1.28125,-2.59375 -2.875,0 -42.5,0 -42.53125,0 -2.84375,0 z m 5.71875,3.5625 39.65625,0 39.65625,0 -39.65625,79.28125 -39.65625,-79.28125 z" />
  <path
     id="path7637"
     style="fill:#000000;fill-opacity:1;fill-rule:evenodd;stroke:none"
     d="m 479.02239,188.92151 1.28125,2.59375 42.53125,85.03125 1.5625,3.15625 1.59375,-3.15625 42.53125,-85.03125 1.28125,-2.59375 -2.875,0 -42.53125,0 -42.5,0 -2.875,0 z m 5.71875,3.5625 39.65625,0 39.65625,0 -39.65625,79.3125 -39.65625,-79.3125 z" />
  <path
     id="path7639"
     style="fill:#000000;fill-opacity:1;fill-rule:evenodd;stroke:none"
     d="m 734.14739,188.92151 1.28125,2.59375 42.5,85.03125 1.59375,3.15625 1.59375,-3.15625 42.53125,-85.03125 1.28125,-2.59375 -2.875,0 -42.53125,0 -42.5,0 -2.875,0 z m 5.71875,3.5625 39.65625,0 39.65625,0 -39.65625,79.28125 -39.65625,-79.28125 z" />
  <g
     id="g3021">
    <text
       sodipodi:linespacing="100%"
       id="text3001"
       y="123.08307"
       x="249.53226"
       style="font-size:40px;font-style:italic;font-weight:normal;line-height:100%;fill:#000000;fill-opacity:1;stroke:none;font-family:Bitstream Vera Sans;-inkscape-font-specification:Sans Italic"
       xml:space="preserve"><tspan
         y="123.08307"
         x="249.53226"
         style="font-size:48px;font-style:italic;font-variant:normal;font-weight:normal;font-stretch:normal;text-align:start;line-height:100%;writing-mode:lr-tb;text-anchor:start;font-family:Times New Roman;-inkscape-font-specification:'Times New Roman, Italic'"
         id="tspan3013"
         sodipodi:role="line">z</tspan></text>
    <text
       xml:space="preserve"
       style="font-size:28px;font-style:oblique;font-variant:normal;font-weight:normal;font-stretch:normal;text-align:start;line-height:100%;writing-mode:lr-tb;text-anchor:start;fill:#000000;fill-opacity:1;stroke:none;font-family:Bitstream Vera Sans;-inkscape-font-specification:Bitstream Vera Sans Oblique"
       x="269.44962"
       y="105.65266"
       id="text3015"
       sodipodi:linespacing="100%"><tspan
         style="-inkscape-font-specification:'Times New Roman,';font-family:Times New Roman;font-weight:normal;font-style:normal;font-stretch:normal;font-variant:normal;font-size:28px;text-anchor:start;text-align:start;writing-mode:lr;line-height:100%"
         y="105.65266"
         x="269.44962"
         id="tspan3019"
         sodipodi:role="line">–1</tspan></text>
  </g>
  <g
     id="g3027"
     transform="translate(168,0)">
    <text
       xml:space="preserve"
       style="font-size:40px;font-style:italic;font-weight:normal;line-height:100%;fill:#000000;fill-opacity:1;stroke:none;font-family:Bitstream Vera Sans;-inkscape-font-specification:Sans Italic"
       x="249.53226"
       y="123.08307"
       id="text3029"
       sodipodi:linespacing="100%"><tspan
         sodipodi:role="line"
         id="tspan3031"
         style="font-size:48px;font-style:italic;font-variant:normal;font-weight:normal;font-stretch:normal;text-align:start;line-height:100%;writing-mode:lr-tb;text-anchor:start;font-family:Times New Roman;-inkscape-font-specification:'Times New Roman, Italic'"
         x="249.53226"
         y="123.08307">z</tspan></text>
    <text
       sodipodi:linespacing="100%"
       id="text3033"
       y="105.65266"
       x="269.44962"
       style="font-size:28px;font-style:oblique;font-variant:normal;font-weight:normal;font-stretch:normal;text-align:start;line-height:100%;writing-mode:lr-tb;text-anchor:start;fill:#000000;fill-opacity:1;stroke:none;font-family:Bitstream Vera Sans;-inkscape-font-specification:Bitstream Vera Sans Oblique"
       xml:space="preserve"><tspan
         sodipodi:role="line"
         id="tspan3035"
         x="269.44962"
         y="105.65266"
         style="font-size:28px;font-style:normal;font-variant:normal;font-weight:normal;font-stretch:normal;text-align:start;line-height:100%;writing-mode:lr-tb;text-anchor:start;font-family:Times New Roman;-inkscape-font-specification:'Times New Roman,'">–1</tspan></text>
  </g>
  <g
     transform="translate(422.97791,0)"
     id="g3037">
    <text
       sodipodi:linespacing="100%"
       id="text3039"
       y="123.08307"
       x="249.53226"
       style="font-size:40px;font-style:italic;font-weight:normal;line-height:100%;fill:#000000;fill-opacity:1;stroke:none;font-family:Bitstream Vera Sans;-inkscape-font-specification:Sans Italic"
       xml:space="preserve"><tspan
         y="123.08307"
         x="249.53226"
         style="font-size:48px;font-style:italic;font-variant:normal;font-weight:normal;font-stretch:normal;text-align:start;line-height:100%;writing-mode:lr-tb;text-anchor:start;font-family:Times New Roman;-inkscape-font-specification:'Times New Roman, Italic'"
         id="tspan3041"
         sodipodi:role="line">z</tspan></text>
    <text
       xml:space="preserve"
       style="font-size:28px;font-style:oblique;font-variant:normal;font-weight:normal;font-stretch:normal;text-align:start;line-height:100%;writing-mode:lr-tb;text-anchor:start;fill:#000000;fill-opacity:1;stroke:none;font-family:Bitstream Vera Sans;-inkscape-font-specification:Bitstream Vera Sans Oblique"
       x="269.44962"
       y="105.65266"
       id="text3043"
       sodipodi:linespacing="100%"><tspan
         style="font-size:28px;font-style:normal;font-variant:normal;font-weight:normal;font-stretch:normal;text-align:start;line-height:100%;writing-mode:lr-tb;text-anchor:start;font-family:Times New Roman;-inkscape-font-specification:'Times New Roman,'"
         y="105.65266"
         x="269.44962"
         id="tspan3045"
         sodipodi:role="line">–1</tspan></text>
  </g>
  <path
     id="path2920"
     style="font-size:40px;font-style:italic;font-variant:normal;font-weight:normal;font-stretch:normal;text-align:start;line-height:100%;writing-mode:lr-tb;text-anchor:start;fill:#000000;fill-opacity:1;stroke:none;font-family:Times New Roman;-inkscape-font-specification:'Times New Roman, Italic'"
     d="m 24.213869,93.142059 c 0.893219,0.947941 1.567697,1.895857 2.023438,2.84375 0.328113,0.656272 0.865872,2.378926 1.613281,5.167971 l 2.40625,-3.609377 c 0.638004,-0.874979 1.412743,-1.704405 2.324219,-2.488281 0.911439,-0.80206 1.713521,-1.348934 2.40625,-1.640625 0.437479,-0.182267 0.920551,-0.273413 1.449218,-0.273438 0.783832,2.5e-5 1.403623,0.20966 1.859375,0.628907 0.473934,0.419294 0.710913,0.92971 0.710938,1.53125 -2.5e-5,0.69273 -0.136743,1.166688 -0.410156,1.421875 -0.510441,0.455749 -1.093773,0.683614 -1.75,0.683593 -0.382835,2.1e-5 -0.792991,-0.08201 -1.230469,-0.246093 -0.856791,-0.291646 -1.431009,-0.437479 -1.722656,-0.4375 -0.437519,2.1e-5 -0.95705,0.255229 -1.558594,0.765625 -1.130225,0.947936 -2.479182,2.779964 -4.046875,5.496094 l 2.242187,9.40625 c 0.346338,1.44011 0.638005,2.30599 0.875,2.59766 0.236962,0.27344 0.473941,0.41015 0.710938,0.41015 0.382794,0 0.829408,-0.20963 1.339844,-0.6289 1.002584,-0.83854 1.859354,-1.93229 2.570312,-3.28125 l 0.957031,0.49218 c -1.148458,2.15105 -2.60679,3.93751 -4.375,5.35938 -1.002621,0.80208 -1.850276,1.20312 -2.542968,1.20312 -1.020848,0 -1.832045,-0.57422 -2.433594,-1.72265 -0.382825,-0.71094 -1.175793,-3.77344 -2.378906,-9.1875 -2.843758,4.94011 -5.122402,8.12109 -6.835938,9.54297 -1.111982,0.91145 -2.187502,1.36718 -3.226562,1.36718 -0.729167,0 -1.394531,-0.26432 -1.996094,-0.79297 -0.437498,-0.40104 -0.656248,-0.9388 -0.65625,-1.61328 2e-6,-0.60156 0.200522,-1.10286 0.601562,-1.5039 0.401043,-0.40104 0.89323,-0.60156 1.476563,-0.60157 0.583332,1e-5 1.203124,0.29167 1.859375,0.875 0.473956,0.41928 0.838539,0.62891 1.09375,0.62891 0.218747,0 0.501298,-0.14583 0.847656,-0.4375 0.856766,-0.6927 2.023432,-2.18749 3.5,-4.48437 1.476554,-2.29687 2.442699,-3.95572 2.898438,-4.97657 -1.130218,-4.42967 -1.740894,-6.772113 -1.832032,-7.027341 -0.419279,-1.184875 -0.966153,-2.023416 -1.640625,-2.515625 -0.674485,-0.492165 -1.667974,-0.738258 -2.980468,-0.738281 -0.419275,2.3e-5 -0.902347,0.01825 -1.449219,0.05469 l 0,-0.984375 7.300781,-1.285157" />
  <path
     id="path2922"
     style="font-size:56px;font-style:normal;font-variant:normal;font-weight:normal;font-stretch:normal;text-align:start;line-height:100%;writing-mode:lr-tb;text-anchor:start;fill:#000000;fill-opacity:1;stroke:none;font-family:Times New Roman;-inkscape-font-specification:'Times New Roman,'"
     d="m 55.959963,128.98972 -12.03125,0 0,-49.027348 12.03125,0 0,2.160156 -7.929688,0 0,44.734372 7.929688,0 0,2.13282" />
  <path
     id="path2924"
     style="font-size:40px;font-style:italic;font-variant:normal;font-weight:normal;font-stretch:normal;text-align:start;line-height:100%;writing-mode:lr-tb;text-anchor:start;fill:#000000;fill-opacity:1;stroke:none;font-family:Times New Roman;-inkscape-font-specification:'Times New Roman, Italic'"
     d="m 70.397463,93.142059 -3.636719,12.441411 c 3.408842,-5.08592 6.01561,-8.430973 7.820313,-10.035161 1.822898,-1.604142 3.572896,-2.406225 5.25,-2.40625 0.911435,2.5e-5 1.65883,0.300806 2.242187,0.902344 0.601538,0.601586 0.902319,1.385439 0.902344,2.351563 -2.5e-5,1.09377 -0.264348,2.552102 -0.792969,4.375004 l -3.335937,11.51171 c -0.382833,1.33074 -0.574239,2.14193 -0.574219,2.4336 -2e-5,0.25521 0.0729,0.47396 0.21875,0.65625 0.145813,0.16406 0.30076,0.24609 0.464844,0.24609 0.218728,0 0.483051,-0.11849 0.792968,-0.35547 0.966124,-0.76562 2.023414,-1.93228 3.171875,-3.5 l 0.847657,0.51953 c -1.695337,2.42449 -3.299502,4.15626 -4.8125,5.19532 -1.057312,0.71093 -2.005228,1.0664 -2.84375,1.0664 -0.674497,0 -1.212257,-0.20963 -1.613282,-0.6289 -0.401057,-0.40104 -0.601578,-0.94792 -0.601562,-1.64063 -1.6e-5,-0.875 0.30988,-2.3789 0.929687,-4.51172 l 3.171875,-10.99218 c 0.401022,-1.367173 0.601542,-2.433579 0.601563,-3.199223 -2.1e-5,-0.364563 -0.11851,-0.656229 -0.355469,-0.875 -0.236999,-0.236958 -0.528665,-0.355447 -0.875,-0.355469 -0.510435,2.2e-5 -1.121112,0.218771 -1.832031,0.65625 -1.348975,0.820333 -2.752619,2.178404 -4.210938,4.074222 -1.458345,1.87762 -2.998708,4.28386 -4.621093,7.21875 -0.856779,1.54948 -1.567716,3.24479 -2.132813,5.08593 l -1.367187,4.51172 -4.101563,0 4.976563,-17.11718 c 0.583326,-2.059881 0.874993,-3.299463 0.875,-3.718754 -7e-6,-0.401021 -0.16407,-0.747375 -0.492188,-1.039063 -0.309902,-0.309874 -0.701829,-0.464821 -1.175781,-0.464844 -0.218755,2.3e-5 -0.601567,0.03648 -1.148438,0.109375 l -1.039062,0.164063 -0.164063,-0.984375 9.460938,-1.695313" />
  <path
     id="path2926"
     style="font-size:56px;font-style:normal;font-variant:normal;font-weight:normal;font-stretch:normal;text-align:start;line-height:100%;writing-mode:lr-tb;text-anchor:start;fill:#000000;fill-opacity:1;stroke:none;font-family:Times New Roman;-inkscape-font-specification:'Times New Roman,'"
     d="m 88.088869,79.962372 12.031251,0 0,49.054688 -12.031251,0 0,-2.16016 7.929688,0 0,-44.734372 -7.929688,0 0,-2.160156" />
  <path
     id="path2933"
     style="font-size:40px;font-style:italic;font-variant:normal;font-weight:normal;font-stretch:normal;text-align:start;line-height:100%;writing-mode:lr-tb;text-anchor:start;fill:#000000;fill-opacity:1;stroke:none;font-family:Times New Roman;-inkscape-font-specification:'Times New Roman, Italic'"
     d="m 915.18555,363.0997 c 0.61978,1.05732 1.04816,2.0508 1.28515,2.98047 0.23697,0.91148 0.47395,2.71616 0.71094,5.41406 l 1.20313,13.45313 c 1.09373,-1.3125 2.67967,-3.39062 4.75781,-6.23438 1.00258,-1.3854 2.24217,-3.27212 3.71875,-5.66015 0.89321,-1.45832 1.44008,-2.47915 1.64062,-3.0625 0.10936,-0.29165 0.16404,-0.59243 0.16407,-0.90235 -3e-5,-0.2005 -0.0638,-0.36456 -0.19141,-0.49219 -0.12763,-0.12758 -0.46487,-0.27341 -1.01172,-0.4375 -0.52867,-0.18227 -0.97528,-0.50128 -1.33984,-0.95703 -0.34638,-0.47393 -0.51955,-1.01169 -0.51953,-1.61328 -2e-5,-0.74737 0.21873,-1.34893 0.65625,-1.80469 0.43748,-0.4557 0.98435,-0.68356 1.64062,-0.68359 0.80206,3e-5 1.48565,0.33726 2.05078,1.01172 0.56508,0.65627 0.84763,1.56773 0.84766,2.73437 -3e-5,1.44013 -0.49221,3.08987 -1.47656,4.94922 -0.9844,1.84116 -2.88023,4.6758 -5.6875,8.50391 -2.80731,3.82813 -6.20705,8.0026 -10.19922,12.52344 -2.75261,3.11718 -4.79428,5.07681 -6.125,5.8789 -1.33073,0.8203 -2.47005,1.23046 -3.41797,1.23047 -0.5651,-1e-5 -1.05729,-0.21876 -1.47656,-0.65625 -0.4375,-0.41928 -0.65625,-0.91147 -0.65625,-1.47656 0,-0.71095 0.30078,-1.35808 0.90234,-1.94141 0.58334,-0.58334 1.22136,-0.875 1.91406,-0.875 0.36459,0 0.66537,0.082 0.90235,0.2461 0.14583,0.0911 0.30989,0.34634 0.49218,0.76562 0.16407,0.43749 0.31901,0.72916 0.46485,0.875 0.0911,0.0911 0.20052,0.13671 0.32812,0.13672 0.10938,-10e-6 0.30078,-0.0911 0.57422,-0.27344 1.0026,-0.6198 2.16927,-1.60417 3.5,-2.95312 1.74999,-1.78646 3.04426,-3.2448 3.88281,-4.375 l -1.53125,-17.33594 c -0.25521,-2.86196 -0.63802,-4.60284 -1.14843,-5.22266 -0.51043,-0.61977 -1.3672,-0.92966 -2.57032,-0.92968 -0.38281,2e-5 -1.06641,0.0547 -2.05078,0.16406 l -0.24609,-1.01172 8.01172,-1.96875" />
  <path
     id="path2935"
     style="font-size:56px;font-style:normal;font-variant:normal;font-weight:normal;font-stretch:normal;text-align:start;line-height:100%;writing-mode:lr-tb;text-anchor:start;fill:#000000;fill-opacity:1;stroke:none;font-family:Times New Roman;-inkscape-font-specification:'Times New Roman,'"
     d="m 947.69727,398.94736 -12.03125,0 0,-49.02735 12.03125,0 0,2.16016 -7.92969,0 0,44.73437 7.92969,0 0,2.13282" />
  <path
     id="path2937"
     style="font-size:40px;font-style:italic;font-variant:normal;font-weight:normal;font-stretch:normal;text-align:start;line-height:100%;writing-mode:lr-tb;text-anchor:start;fill:#000000;fill-opacity:1;stroke:none;font-family:Times New Roman;-inkscape-font-specification:'Times New Roman, Italic'"
     d="m 962.13477,363.0997 -3.63672,12.44141 c 3.40884,-5.08592 6.01561,-8.43097 7.82031,-10.03516 1.8229,-1.60414 3.5729,-2.40622 5.25,-2.40625 0.91144,3e-5 1.65883,0.30081 2.24219,0.90234 0.60153,0.60159 0.90232,1.38544 0.90234,2.35157 -2e-5,1.09377 -0.26435,2.5521 -0.79297,4.375 l -3.33594,11.51172 c -0.38283,1.33073 -0.57423,2.14193 -0.57421,2.43359 -2e-5,0.25521 0.0729,0.47396 0.21875,0.65625 0.14581,0.16406 0.30076,0.2461 0.46484,0.24609 0.21873,1e-5 0.48305,-0.11848 0.79297,-0.35547 0.96612,-0.76562 2.02341,-1.93228 3.17187,-3.5 l 0.84766,0.51954 c -1.69534,2.42448 -3.2995,4.15625 -4.8125,5.19531 -1.05731,0.71094 -2.00523,1.0664 -2.84375,1.0664 -0.6745,0 -1.21226,-0.20963 -1.61328,-0.6289 -0.40106,-0.40104 -0.60158,-0.94792 -0.60156,-1.64063 -2e-5,-0.87499 0.30988,-2.3789 0.92968,-4.51172 l 3.17188,-10.99218 c 0.40102,-1.36717 0.60154,-2.43358 0.60156,-3.19922 -2e-5,-0.36456 -0.11851,-0.65623 -0.35547,-0.875 -0.237,-0.23696 -0.52866,-0.35545 -0.875,-0.35547 -0.51043,2e-5 -1.12111,0.21877 -1.83203,0.65625 -1.34897,0.82033 -2.75262,2.1784 -4.21094,4.07422 -1.45834,1.87762 -2.99871,4.28387 -4.62109,7.21875 -0.85678,1.54949 -1.56772,3.2448 -2.13281,5.08594 l -1.36719,4.51171 -4.10156,0 4.97656,-17.11718 c 0.58333,-2.05988 0.87499,-3.29946 0.875,-3.71875 -10e-6,-0.40102 -0.16407,-0.74738 -0.49219,-1.03907 -0.3099,-0.30987 -0.70183,-0.46482 -1.17578,-0.46484 -0.21875,2e-5 -0.60157,0.0365 -1.14844,0.10938 l -1.03906,0.16406 -0.16406,-0.98438 9.46094,-1.69531" />
  <path
     id="path2939"
     style="font-size:56px;font-style:normal;font-variant:normal;font-weight:normal;font-stretch:normal;text-align:start;line-height:100%;writing-mode:lr-tb;text-anchor:start;fill:#000000;fill-opacity:1;stroke:none;font-family:Times New Roman;-inkscape-font-specification:'Times New Roman,'"
     d="m 979.82617,349.92001 12.03125,0 0,49.05469 -12.03125,0 0,-2.16016 7.92969,0 0,-44.73437 -7.92969,0 0,-2.16016" />
</svg>
